<?xml version="1.0" encoding="utf-8"?>
<!-- Generator: Adobe Illustrator 28.2.0, SVG Export Plug-In . SVG Version: 6.00 Build 0)  -->
<svg version="1.1" id="Calque_1" xmlns="http://www.w3.org/2000/svg" xmlns:xlink="http://www.w3.org/1999/xlink" x="0px" y="0px"
	 viewBox="0 0 282 128" style="enable-background:new 0 0 282 128;" xml:space="preserve">
<style type="text/css">
	.st0{fill:#FFFFFF;}
	.st1{fill-rule:evenodd;clip-rule:evenodd;fill:#1C4293;}
	.st2{fill-rule:evenodd;clip-rule:evenodd;fill:#FFFFFF;}
	.st3{fill:#1C4293;}
	.st4{fill:#29ABE2;}
	.st5{fill:#FFFF00;}
	.st6{fill:#ED1C24;}
	.st7{fill-rule:evenodd;clip-rule:evenodd;fill:#1C4293;stroke:#FFFFFF;}
	.st8{fill-rule:evenodd;clip-rule:evenodd;fill:none;stroke:#1C4293;stroke-width:0.25;}
	.st9{fill-rule:evenodd;clip-rule:evenodd;fill:#FFFFFF;stroke:#1C4293;stroke-width:0.25;}
	.st10{fill:#FFFFFF;stroke:#1C4293;stroke-width:0.25;}
	.st11{fill:#FFFFFF;stroke:#1C4293;}
	.st12{fill-rule:evenodd;clip-rule:evenodd;fill:#FFFFFF;stroke:#1C4293;}
	.st13{fill-rule:evenodd;clip-rule:evenodd;fill:none;stroke:#FFFFFF;}
	.st14{fill-rule:evenodd;clip-rule:evenodd;fill:#050066;}
	.st15{fill-rule:evenodd;clip-rule:evenodd;fill:#D9871B;}
	.st16{fill-rule:evenodd;clip-rule:evenodd;fill:#008000;}
	.st17{fill-rule:evenodd;clip-rule:evenodd;fill:none;stroke:#FFFFFF;stroke-width:2;}
</style>
<g>
	<g>
		<g>
			<path class="st1" d="M63.3,32.5c-2.4,0-15.5,1-24.8,2.8c-3.8,6.3-5.9,13-5.9,22.1s4.9,34.3,30.8,43.5
				c25.9-9.2,30.8-34.4,30.8-43.5c0-9.1-2.1-15.7-5.9-22.1C79,33.5,65.7,32.5,63.3,32.5z"/>
			<path class="st0" d="M63.4,101.5l-0.2-0.1c-24.7-8.8-31.2-32.7-31.2-44.1c0-8.6,1.8-15.5,6-22.4l0.1-0.2l0.3-0.1
				c9.3-1.8,22.4-2.8,24.9-2.8c2.6,0,15.9,1,25.1,2.8l0.3,0.1l0.1,0.2c4.1,6.9,6,13.8,6,22.4c0,11.4-6.5,35.3-31.2,44.1L63.4,101.5z
				 M38.9,35.8c-3.9,6.6-5.6,13.3-5.6,21.5c0,11.1,6.3,34.2,30.1,42.8c23.8-8.6,30.1-31.7,30.1-42.8c0-8.3-1.7-14.8-5.6-21.5
				c-9.1-1.8-22.1-2.8-24.6-2.8C60.8,33.1,48.1,34.1,38.9,35.8z"/>
		</g>
		<g>
			<path class="st2" d="M35.8,72.9c3.5,10,11.3,21.9,27.6,27.5C79.7,94.7,87.5,82.9,91,72.9c-3.8,9.3-11.8,19.9-27.6,25
				C47.5,92.8,39.6,82.2,35.8,72.9L35.8,72.9z"/>
		</g>
		<g>
			<g>
				<path class="st2" d="M63.4,54.5L51.1,42.6L39.9,39l10,6.1L63.4,54.5l-13.7-9.2l-11.8-3.1l10.9,6L63.4,54.5l-15-6l-11.8-0.6
					l11.3,3.2l15.5,3.2l-15.6-2.7l-11.2,1.5L48,54.3L63.4,54.5l-15.2,0.3l-10.5,3.6l11.5-1.1L63.4,54.5l-13.8,3.1l-9.3,6l10.5-3.6
					L63.4,54.5l-12.3,5.9l-7.6,7l8.9-4.7L63.4,54.5l-10.5,8.6l-4.4,9.2L63.4,54.5L63.4,54.5z"/>
			</g>
			<g>
				<path class="st2" d="M63.4,54.5l12.3-11.9L86.8,39l-9.3,4.8L63.4,54.5l14.1-10.2l11.4-0.8l-10.6,4L63.4,54.5l15-6.6l11.2,0.2
					L79,50.6l-15.6,3.7l15.7-3.5L90,53.6l-10.9,0.2L63.4,54.5l15.5-0.1L89,58.5l-11.3-1.2L63.4,54.5l15,3.3l8.2,5.8l-9.6-3.3
					L63.4,54.5l13.2,6.2l6.6,6.7l-8.4-4.1L63.4,54.5l11.3,9.3l3.6,8.4L63.4,54.5L63.4,54.5z"/>
			</g>
		</g>
		<g>
			<polygon class="st3" points="63.3,55.5 62.2,55 62.2,54.9 61.2,51.1 61.7,49 60.8,48.7 60.7,47.3 58.4,43.4 58.4,40.1 63.2,34.4 
				63.5,34.6 58.7,40.2 58.7,43.3 61,47.2 61.1,48.5 62.1,48.7 61.5,51.1 62.5,54.8 63.4,55.2 			"/>
		</g>
		<g>
			<g>
				<path class="st2" d="M67.2,43.6l1.2,0.5l-0.6,0.9l-0.7,0.6l-0.3,0.8L66,45.9L67.2,43.6L67.2,43.6z M59.4,43.6l-1.2,0.5l0.6,0.9
					l0.7,0.6l0.3,0.8l0.8-0.6C60.7,45.9,59.4,43.6,59.4,43.6z"/>
				<path class="st3" d="M66.9,46.7l-1.1-0.8l0.1-0.1l1.3-2.4l1.5,0.7l-0.7,1.1l-0.7,0.6L66.9,46.7z M66.2,45.8l0.5,0.4l0.3-0.6
					l0.7-0.6l0.5-0.7l-0.9-0.4L66.2,45.8z M59.8,46.7l-0.4-0.9l-0.7-0.6L58,44.1l1.5-0.7l1.4,2.5L59.8,46.7z M59,45l0.8,0.7l0.2,0.6
					l0.5-0.4l-1.1-2l-0.9,0.4L59,45z"/>
			</g>
		</g>
		<g>
			<path class="st2" d="M63.4,34.5L58.6,40v3.3l2.3,3.9l0.1,1.3l0.9,0.3L61.4,51l1,3.8l1,0.5l1-0.5l1-3.8l-0.5-2.2l0.9-0.3l0.1-1.3
				l2.3-3.9v-3.2L63.4,34.5z"/>
			<path class="st3" d="M63.4,55.5l-1.2-0.6l0-0.1l-1-3.8l0.5-2.1l-0.9-0.3l-0.1-1.4l-2.3-3.9V40l4.9-5.8l4.9,5.8v3.3l0,0L66,47.3
				l-0.1,1.4l-0.9,0.3l0.5,2.1l0,0l-1,3.9L63.4,55.5z M62.5,54.7l0.9,0.4l0.9-0.4l0.9-3.7l-0.5-2.3l0.9-0.3l0.1-1.3l2.3-3.8v-3.1
				l-4.6-5.4l-4.6,5.4v3.2l2.3,3.9l0.1,1.2l0.9,0.3L61.5,51L62.5,54.7z"/>
		</g>
		<g>
			<path class="st0" d="M58.6,41.6l2.4-1.6l1.6-0.1l0.1,2.3l0.7,1.5l-0.5,1.1"/>
			<polygon class="st3" points="63,45 62.7,44.9 63.2,43.8 62.5,42.3 62.4,40.2 61.1,40.3 58.7,41.8 58.5,41.5 61,39.9 62.7,39.8 
				62.8,42.2 63.5,43.8 			"/>
		</g>
		<g>
			<path class="st2" d="M62.1,44.9l0.1,0.5l0.4,0.2l0.2,0.5h0.5 M63.4,46.5l-1.2,0l-0.8,0.5l0.7,0.5l1.3,0 M62.4,47l1,0 M61.8,49.7
				l1.6,0.1 M61.5,50.5l1.9,0 M61.5,51.3l1.9,0"/>
			<path class="st3" d="M63.4,51.5l-1.9,0l0-0.3l1.9,0L63.4,51.5z M61.5,50.7l0-0.3l1.9,0l0,0.3L61.5,50.7z M63.4,49.9l-1.6-0.1
				l0-0.3l1.6,0.1L63.4,49.9z M63.4,47.8l-1.3,0l-1-0.7l1-0.7l1.3,0l0,0.3l-1.2,0l-0.5,0.4l0.5,0.4l1.2,0L63.4,47.8z M63.4,47.2
				l-1,0l0-0.3l1,0L63.4,47.2z M63.4,46.1h-0.6l-0.2-0.5l-0.4-0.2L62,44.9l0.3-0.1l0.1,0.4l0.3,0.2l0.2,0.4h0.4V46.1z"/>
		</g>
		<g>
			<path class="st2" d="M63.4,55.4l1-0.5l1-3.8l-0.5-2.2l0.9-0.3l0.1-1.3l2.3-3.9v-3.2l-4.8-5.7"/>
			<polygon class="st3" points="63.4,55.5 63.3,55.2 64.3,54.8 65.2,51.1 64.7,48.7 65.6,48.5 65.7,47.2 68,43.3 68,40.2 63.2,34.6 
				63.5,34.4 68.3,40.1 68.3,43.4 68.3,43.5 66,47.3 65.9,48.7 65.1,49 65.5,51.1 65.5,51.1 64.6,55 			"/>
		</g>
		<g>
			<path class="st0" d="M68.1,41.6l-2.4-1.6L64.1,40L64,42.3l-0.6,1.5l0.5,1.1"/>
			<polygon class="st3" points="63.8,45 63.2,43.8 63.8,42.2 63.9,39.8 65.7,39.9 65.7,40 68.2,41.5 68,41.8 65.6,40.3 64.3,40.2 
				64.2,42.3 63.5,43.8 64.1,44.9 			"/>
		</g>
		<g>
			<path class="st2" d="M64.6,44.9l-0.1,0.5l-0.4,0.2L63.8,46h-0.5 M63.4,46.5l1.2,0l0.8,0.5l-0.7,0.5l-1.3,0 M64.3,47l-1,0
				 M65,49.7l-1.6,0.1 M65.2,50.5l-1.9,0 M65.2,51.3l-1.9,0 M61.9,52.8l1.5,0l1.5,0 M64.6,53.9L63.3,54l-1.2-0.1"/>
			<path class="st3" d="M63.3,54.1L62.1,54l0-0.3l1.2,0.1l1.2-0.1l0,0.3L63.3,54.1z M63.4,53l-1.5,0l0-0.3l1.5,0l1.5,0l0,0.3
				L63.4,53z M63.4,51.5l0-0.3l1.9,0l0,0.3L63.4,51.5z M65.2,50.7l-1.9,0l0-0.3l1.9,0L65.2,50.7z M63.4,49.9l0-0.3l1.6-0.1l0,0.3
				L63.4,49.9z M63.4,47.8l0-0.3l1.2,0l0.5-0.4l-0.5-0.4l-1.2,0l0-0.3l1.3,0l1,0.7l-1,0.7L63.4,47.8z M63.3,47.2l0-0.3l1,0l0,0.3
				L63.3,47.2z M63.9,46.1h-0.6v-0.3h0.4l0.2-0.4l0.3-0.2l0.1-0.4l0.3,0.1l-0.2,0.5l-0.4,0.2L63.9,46.1z"/>
		</g>
		<g>
			<path class="st0" d="M61.9,48.8l2.8,0"/>
			
				<rect x="62.7" y="47.5" transform="matrix(1.604787e-02 -0.9999 0.9999 1.604787e-02 13.4431 111.4001)" class="st3" width="1.3" height="2.8"/>
		</g>
		<g>
			<path class="st2" d="M59.1,78.3c-0.2,2.7-1,5.6,0,7.8c0.4-0.9,0.8-1.2,1.2-5.1c-0.7,3.2-0.6,4-0.3,5.2c0.6-0.4,0.9-1.3,1.1-4.7
				c-0.5,3.9-0.2,4.2,0,4.7c0.6,0.1,0.9-1.8,1-4.8c-0.2,3.8,0,5.3,0.5,5.2c0.4-0.8,1-0.7,0.7-5.3c0.4,4.5,0.9,4.9,1.3,5.5
				c0.3-0.6,0.5-1.5,0-5.1c0.8,4.1,1,4.4,1.3,4.7c0.3-0.3,0.4-1.6,0-5.2c0.4,2.7,0.7,3.6,1.2,4.5c0-1.4,0-2.6-0.1-5.5
				c0.4,2.5,0.5,3.9,1,5.5c0.1-2.3,0-2.4-0.2-7.3c-0.5-1-1-2.4-4.4-2.6C61.5,76.5,60.1,76.1,59.1,78.3z"/>
			<path class="st3" d="M64.7,88.4L64,87.2c-0.1-0.2-0.3-0.4-0.4-0.7c-0.1,0.1-0.1,0.2-0.2,0.3c-0.1,0.1-0.1,0.2-0.2,0.3l-0.1,0.3
				l-0.3,0.1c-0.3,0-0.5,0-0.8-0.2c-0.1-0.1-0.2-0.2-0.3-0.4C61.5,87,61.3,87.1,61,87l-0.3-0.1l-0.1-0.3c-0.1,0.1-0.2,0.1-0.2,0.2
				l-0.8,0.5l-0.1-0.5L59,87.7l-0.6-1.4c-0.8-1.9-0.5-4.1-0.2-6.2c0.1-0.6,0.2-1.3,0.2-1.9l0.1-0.2c1-2.2,2.4-2.3,3.7-2.4
				c0.3,0,0.6-0.1,1-0.1l0.1,0l0.1,0c3.5,0.2,4.3,1.7,4.8,2.7l0.2,0.4l0,0.2c0.1,1.6,0.1,2.7,0.2,3.5c0.1,1.6,0.1,2.2,0,3.8
				l-1.3,0.2c0,0,0-0.1,0-0.1l-0.5,0.1c-0.1,0.5-0.2,0.7-0.4,0.9l-0.5,0.5l-0.5-0.5c0,0-0.1-0.1-0.1-0.1c0,0.1-0.1,0.2-0.1,0.3
				L64.7,88.4z M62.7,82.7c0,1,0,1.7,0,2.2c0.1-0.6,0.1-1.4,0-2.7C62.7,82.4,62.7,82.6,62.7,82.7z M59.7,78.5
				c-0.1,0.6-0.1,1.2-0.2,1.8c-0.1,0.8-0.2,1.6-0.2,2.3c0.1-0.5,0.2-1,0.3-1.7l1.3,0.2c0,0.1,0,0.3,0,0.4l0.6,0.1c0,0,0-0.1,0-0.1
				l1.2,0c0,0,0,0,0-0.1l1.3-0.1c0,0.2,0,0.4,0.1,0.6l1.2-0.2c0,0.2,0.1,0.3,0.1,0.4c0-0.2-0.1-0.4-0.1-0.7h0c0,0,0,0,0,0l1.1-0.1
				c0-0.3,0-0.6,0-0.9l0.9-0.1c0-0.4,0-0.9-0.1-1.5L67,78.9c-0.5-0.9-1-1.9-3.7-2.1c-0.4,0.1-0.7,0.1-1,0.1
				C61.1,77.1,60.4,77.1,59.7,78.5z"/>
		</g>
		<g>
			<path class="st2" d="M63.4,72c-3.6,0.4-6.5,5-5.7,9.5c0.7-1.5-0.1-0.7,1.2-3.1c-0.3,1.2-0.2,2.3,0.3,3.2c0.6-1,1.1-1.9,1.2-3.3
				c0,1.1,0,2,0.5,2.8c0.7-0.5,0.8-1.6,1-2.8c0.1,1.5,0,2.1,0.7,3.4c0.5-1,0.7-2.1,0.8-3.4c0,1.5,0.1,2.2,0.8,3.5
				c0.5-1.6,0.5-1.6,0.4-3.5c0.2,1.6,0.3,2.3,0.9,3.1c0.1-1,0.7-1.3,0.2-2.7c1,0.7,0.9,1.3,1.2,2.5c0.1,0,0.4-1.2-0.1-3
				c1.7,2.4,2.5,3.3,2.5,3.3C69.2,78.4,68.6,72.9,63.4,72L63.4,72z"/>
			<path class="st3" d="M57.4,83.6l-0.3-2c-0.5-2.6,0.2-5.4,1.8-7.5c1.2-1.6,2.8-2.6,4.5-2.7l0.1,0l0.1,0c4.2,0.7,6.4,4.2,6.4,10.1
				v1.8l-1.1-1.3c0,0-0.4-0.4-1.1-1.3c0,0.5-0.2,1-0.4,1.1L66.9,82l-0.7-0.3l-0.1-0.3c0-0.1-0.1-0.2-0.1-0.3c0,0.1-0.1,0.2-0.1,0.4
				l-0.2,1.9l-1-1.6c0,0,0,0,0-0.1l-0.5,1.7L63.6,82c-0.1-0.2-0.2-0.3-0.3-0.5c-0.1,0.1-0.1,0.3-0.2,0.4L62.6,83l-0.6-1
				c-0.2-0.3-0.3-0.5-0.4-0.7c-0.1,0.1-0.2,0.2-0.4,0.3L60.7,82l-0.4-0.6c0-0.1-0.1-0.1-0.1-0.2c-0.1,0.3-0.3,0.5-0.5,0.8l-0.6,1
				l-0.5-1.1c-0.1-0.1-0.1-0.3-0.2-0.4c0,0.1-0.1,0.2-0.2,0.3L57.4,83.6z M58.4,78.1l1.1,0.4c-0.1,0.5-0.1,0.9-0.1,1.3
				c0.2-0.5,0.3-1,0.4-1.6l1.3,0.1c0,0.3,0,0.7,0,0.9c0-0.3,0.1-0.6,0.1-0.9l0-0.1l1.3,0c0,0.3,0,0.5,0,0.7c0,0.3,0,0.5,0,0.7
				c0.1-0.4,0.1-0.9,0.1-1.4l1.3,0c0,0,0,0,0,0.1l0.8-0.1l-0.4-1.1l1.6,1.1c0.1,0.1,0.2,0.1,0.2,0.2l1-0.5c0.5,0.7,0.9,1.2,1.2,1.7
				c-0.4-4-2.1-6.3-5.1-6.8c-1.3,0.2-2.5,0.9-3.5,2.2C59.2,75.8,58.7,76.9,58.4,78.1z"/>
		</g>
		<g>
			<path class="st2" d="M63.4,70.1c-3.6,0.4-7.3,4-6.5,8.5c0.7-1.5,1.1-1.6,2.5-4.1C59.1,75.7,59,76,59.4,77c0.6-1,1.1-2.1,1.2-3.5
				c0,1.1,0,2.1,0.5,2.9c0.7-0.5,0.8-2,0.9-3.2c0.1,1.5,0,3,0.7,4.3c0.5-1,0.5-2.4,0.5-3.7c0,1.5,0.2,2.9,0.9,4.1
				c0.5-1.6,0.3-3.6,0.2-5.4c0.2,1.6,0.5,3.1,1,4c0.1-1,0.4-2-0.1-3.4c1,0.7,1.3,2.1,1.6,3.3c0.1,0,0.2-0.8-0.4-2.6
				c1.7,2.4,3.1,5,3.1,5C69.6,75.7,68.6,70.9,63.4,70.1z"/>
			<path class="st3" d="M56.6,80.7l-0.3-2c-0.4-2.1,0.2-4.2,1.5-6c1.4-1.8,3.5-3,5.6-3.2l0.1,0l0.1,0c5.8,1,6.7,6.3,6.8,9.3L69,79
				c0,0-0.6-1.2-1.5-2.6c0,0.2-0.1,0.3-0.2,0.4L67,77.2l-0.7-0.3l-0.2-0.7c0,0,0-0.1,0-0.1c0,0.2,0,0.3-0.1,0.5l-0.2,1.9l-0.8-1.3
				c-0.1,0.3-0.1,0.7-0.2,1l-0.4,1.4l-0.7-1.3c-0.1-0.2-0.2-0.4-0.3-0.5c0,0,0,0.1-0.1,0.1l-0.5,1l-0.6-1c-0.2-0.4-0.4-0.7-0.5-1.1
				c-0.1,0.1-0.1,0.1-0.2,0.2L61,77.4l-0.4-0.6c-0.1-0.1-0.1-0.2-0.1-0.3c-0.2,0.3-0.3,0.6-0.5,0.8l-0.6,1l-0.5-1.1
				c-0.1-0.2-0.1-0.3-0.2-0.4c-0.1,0.2-0.2,0.3-0.3,0.5c-0.4,0.5-0.6,0.9-0.9,1.5L56.6,80.7z M63.3,70.7c-1.7,0.2-3.5,1.2-4.6,2.7
				c-0.7,0.9-1.1,1.8-1.3,2.8c0.3-0.5,0.7-1.1,1.3-2.1l1.1,0.4c0.1-0.3,0.2-0.7,0.2-1.1l1.3,0.1c0,0.3,0,0.6,0,0.8
				c0-0.2,0.1-0.5,0.1-0.7l0.1-0.5l1.3,0c0,0.2,0,0.4,0,0.6l1.1,0c0-0.1,0-0.2,0-0.4l-0.1-0.9l0.6,0l-0.4-1l1.6,1.1
				c0.4,0.3,0.7,0.6,1,1l0.4-0.2c0.5,0.7,1,1.5,1.5,2.2C67.9,73.3,66.4,71.2,63.3,70.7z"/>
		</g>
		<g>
			<path class="st2" d="M63.4,58l-12.1,7.5v-0.1l-0.4,10.1l2.9-8.1l4.9-5.4l-4.5,5.5l-0.4,8.9l3.2-7.8l3.4-6l-3.2,6.1l-0.5,9.6
				l3.2-9.1l2.3-6.1L60.2,69l1,10.3l1.9-9.8l0.2-6.2l0.2,6.2l2.8,9.9l0-9.9L65.2,63l1.4,6.4l4,8.6l-1.1-9.2l-1.8-5.8l2.1,5.5
				l4.7,8.3l-2.3-9.3l-3.8-5l4.7,5.4l3.7,8.2L76,66.3L63.4,58z"/>
		</g>
		<g>
			<path class="st2" d="M38,62.3l0.5,1.3l-0.9,3l1.8-1.3l0.4,1.1l-3.3,2.8L36.1,68L38,62.3L38,62.3z M40.4,67.1l0.6,0.9l-3.1,4.1
				l-0.6-1.2C37.3,70.9,40.4,67.1,40.4,67.1z M41.6,68.9l0.7,1l-2.8,3.3l1.1,1.8l-0.9,1l-1.6-3L41.6,68.9L41.6,68.9z M43.9,71.8
				l0.8,1l-2.9,4.1l1.3,1.7l-0.8,1.1l-2.2-3L43.9,71.8L43.9,71.8z M46.9,74.7l2.7,2.2l-0.9,0.9l-1.6-1.4l-1,1.5l1.7,1.5l-0.7,1.1
				l-1.7-1.5l-1,1.5l1.7,1.5l-0.9,1.2l-2.5-2.7L46.9,74.7L46.9,74.7z M53,79l-4.7,7c0,0,0.6,0.6,1.9,1.5c1.3,0.8,2.3-0.4,2.3-0.4
				s2.3-3.4,2.6-3.8c0.5-1,0.5-2.3-0.4-3.2L53,79z M53.3,80.8l0.4,0.3c0.5,0.2,0.5,0.9,0.2,1.4c-0.2,0.4-2.2,3.4-2.2,3.4
				s-0.5,0.7-1.2,0.3c-0.2-0.1-0.6-0.4-0.6-0.4L53.3,80.8z M57.4,81.4l3.4,1.3L60,84.2l-2.1-1l-1.1,2l1.9,0.9l-0.8,1.4l-1.8-0.9
				l-1.2,1.9l2.2,1.2l-0.9,1.6l-3.6-2.1L57.4,81.4L57.4,81.4z M72,90.4l-5.2-8.2l1.4-0.5l1.8,2.9l-0.1-3.7l1.2-0.5l0,3.4l5.2,3.6
				l-1.1,0.9l-4.1-3.2l0,1.4l2.1,3.2L72,90.4L72,90.4z M72.2,80l1.3-0.8l4.7,6.8L77.1,87L72.2,80L72.2,80z M79.2,85.4l-4.9-6.7
				l1.4-0.8l4.1,2.7L77,77l0.8-0.6l4.5,5.8l-0.9,0.9l-4.7-2.9l3.4,4.6L79.2,85.4L79.2,85.4z M80.7,73.9l0.8,0.7c0,0-1,1.1-0.5,1.6
				c0.4,0.4,0.8,0.3,1.4,0.2c0.6-0.1,1.5-0.1,2,0.5c0.7,0.8,0.6,2-0.1,3.1c-0.5,0.8-0.7,0.9-0.7,0.9L82.5,80
				c0.6-0.7,1.2-1.8,0.6-2.3c-0.6-0.5-1.5,0-2.1,0s-1.1-0.3-1.5-0.8c-0.5-0.8-0.1-1.7,0.2-2.2C80.1,74.2,80.7,73.9,80.7,73.9
				L80.7,73.9z M85.8,77.5L81.6,73l0.8-0.9l1.5,1.6l0.7-1l-1.3-1.5l0.7-0.9l3.7,4.2l-0.5,1l-1.9-2.1l-0.8,1.1l2.1,2.1L85.8,77.5
				L85.8,77.5z M85.8,67.7l-0.6,1l2.8,5l0.6-0.8l-0.9-1.7l0.5-1.1l1.1,0.8l0.5-0.9L85.8,67.7z M86.3,68.8l1.3,0.8l-0.4,0.7
				L86.3,68.8z M87.3,65.3l0.6,0.3c-0.3,0.4-0.4,0.9-0.1,1c0.3,0.2,0.6,0,1-0.1c0.4-0.1,0.8-0.2,1.3,0c0.5,0.2,0.8,1,0.3,2.1
				c-0.2,0.6-0.1,0.4-0.1,0.4l-0.8-0.4c0.2-0.5,0.5-1.1,0-1.4c-0.4-0.2-0.8,0.1-1.1,0.2c-0.4,0.2-0.8,0.1-1.1-0.1
				c-0.6-0.5-0.5-1.1-0.4-1.5C87,65.5,87.3,65.3,87.3,65.3L87.3,65.3z M88.7,62.6l-0.3,0.8l2.6,3.3l0.3-0.7l-0.9-1.1l0.2-0.9
				l1.1,0.4l0.2-0.7L88.7,62.6L88.7,62.6z M89.1,63.3l1,0.4L90,64.4L89.1,63.3L89.1,63.3z"/>
		</g>
		<g>
			<path class="st0" d="M66.9,38.7l-0.2,0.1l-3.3-1.3L60,38.8l-0.2-0.2"/>
			<polygon class="st3" points="60,39 59.7,38.8 59.9,38.5 60.1,38.6 63.3,37.3 66.7,38.6 66.8,38.5 66.9,38.8 66.7,38.9 63.3,37.7 
							"/>
		</g>
		<g>
			<path class="st2" d="M59.1,43.2l1.7-0.9l1.4,0.1l0.2,1.5l-0.4,0.2l-2.7,0C59.4,44.1,59.1,43.2,59.1,43.2z"/>
			<path class="st3" d="M62.1,44.3l-2.7,0l0-0.2l-0.2,0c0-0.1-0.2-0.5-0.3-0.8l-0.1-0.1l1.9-1l1.6,0.1l0.3,1.7L62.1,44.3z
				 M59.5,43.9l2.5,0l0.2-0.1l-0.2-1.2l-1.2-0.1l-1.6,0.8C59.4,43.6,59.5,43.8,59.5,43.9z"/>
		</g>
		<g>
			<path class="st2" d="M59.7,43.2l1-0.3l1.2,0"/>
			<polygon class="st3" points="59.7,43.4 59.6,43.1 60.7,42.8 61.9,42.8 61.9,43.2 60.7,43.1 			"/>
		</g>
		<g>
			<path class="st0" d="M60.4,43.1l0.3,0.5h0.7l0.1-0.7"/>
			<polygon class="st3" points="61.5,43.9 60.6,43.9 60.2,43.2 60.5,43.1 60.8,43.5 61.3,43.5 61.4,43 61.7,43 			"/>
		</g>
		<g>
			<path class="st2" d="M67.6,43.2l-1.7-0.9l-1.4,0.1l-0.2,1.5l0.4,0.2l2.7,0C67.2,44.1,67.6,43.2,67.6,43.2z"/>
			<path class="st3" d="M64.6,44.3L64.1,44l0.3-1.7l1.6-0.1l1.9,1l-0.1,0.1c-0.1,0.3-0.3,0.7-0.3,0.8l-0.1,0l0,0l0,0.2L64.6,44.3z
				 M64.4,43.8l0.2,0.1l2.5,0c0-0.1,0.1-0.3,0.2-0.6l-1.6-0.8l-1.2,0.1L64.4,43.8z"/>
		</g>
		<g>
			<path class="st2" d="M67,43.2L66,43l-1.2,0"/>
			<polygon class="st3" points="67,43.4 66,43.1 64.8,43.2 64.8,42.8 66,42.8 67.1,43.1 			"/>
		</g>
		<g>
			<path class="st0" d="M66.3,43.1L66,43.7h-0.7L65.1,43"/>
			<polygon class="st3" points="66.1,43.9 65.2,43.9 65,43 65.3,43 65.4,43.5 65.9,43.5 66.2,43.1 66.5,43.2 			"/>
		</g>
	</g>
</g>
<g>
	<path class="st0" d="M63,123C30.5,123,4,96.5,4,64S30.5,5,63,5s59,26.5,59,59S95.5,123,63,123z M63,6.1C31.1,6.1,5.1,32.1,5.1,64
		c0,31.9,26,57.9,57.9,57.9s57.9-26,57.9-57.9C120.9,32.1,94.9,6.1,63,6.1z"/>
</g>
<g>
	<path class="st0" d="M18.2,59.5L18,60.7L12.2,60l0.2-1.9c0.1-0.9,0.5-2,2-1.8l0.1,0c0.9,0.1,1.4,0.6,1.5,1.1l2.4-0.7L18.3,58
		l-2.2,0.6l-0.1,0.6L18.2,59.5z M15.1,58.3c0-0.3,0-0.8-0.7-0.8l-0.1,0c-0.7-0.1-0.8,0.3-0.9,0.7l-0.1,0.8l1.6,0.2L15.1,58.3z"/>
	<path class="st0" d="M12.2,51.8l0.7,0.6l-0.2,1.1L12,53L12.2,51.8z M13.6,51.4l1,0.2l-0.5,2.3l1.3,0.3l0.4-1.9l1,0.2l-0.4,1.9
		l1.4,0.3l0.5-2.3l1,0.2l-0.8,3.5l-5.7-1.2L13.6,51.4z"/>
	<path class="st0" d="M19.9,50.9L19.5,52l-5.6-1.8l0.6-1.8c0.3-0.9,0.9-1.9,2.3-1.4l0.1,0c1.5,0.5,1.4,1.6,1.1,2.5l-0.2,0.7
		L19.9,50.9z M17.1,49.2c0.1-0.3,0.1-0.8-0.5-1l-0.1,0c-0.6-0.2-0.9,0.2-1,0.5l-0.2,0.7l1.6,0.5L17.1,49.2z"/>
	<path class="st0" d="M19.2,47.1l-3.7-1.6l0.5-1.1l3.6,1.6c0.6,0.2,0.9,0.2,1.2-0.4c0.3-0.6,0.1-0.9-0.5-1.2l-3.6-1.6l0.5-1.1
		l3.7,1.6c1.2,0.5,1.6,1.3,0.9,2.7C21.2,47.4,20.3,47.6,19.2,47.1z"/>
	<path class="st0" d="M18.7,38.8c0.5-0.8,1.1-1.5,2.3-0.8l0.1,0.1c0.5,0.3,0.6,0.6,0.6,1c0.4-0.3,0.8-0.3,1.4,0l0.1,0.1
		c1.2,0.7,1,1.7,0.5,2.5l-1,1.7l-5.1-2.9L18.7,38.8z M19.3,40l1.1,0.6l0.3-0.6c0.2-0.3,0.2-0.6-0.2-0.9l-0.1,0
		c-0.4-0.2-0.7,0-0.8,0.3L19.3,40z M21.3,41.1l1.2,0.7l0.4-0.7c0.2-0.3,0.2-0.7-0.2-0.9l-0.1,0c-0.5-0.3-0.8,0-0.9,0.3L21.3,41.1z"
		/>
	<path class="st0" d="M25.2,39.4l-4.8-3.4l0.7-1l3.9,2.8l1.2-1.8l0.9,0.6L25.2,39.4z"/>
	<path class="st0" d="M28.2,35.3l-0.8,0.9l-4.6-3.7l0.8-0.9L28.2,35.3z"/>
	<path class="st0" d="M26.6,32.9l-0.2-0.2c-1.5-1.4-1.6-2.5-0.6-3.6c1-1.1,2.2-1.1,3.6,0.3l0.2,0.2c1,1,1.4,1.8,1.2,2.6l0.9,0.3
		L31,33.3L30.4,33c-0.1,0.1-0.1,0.1-0.2,0.2C29.2,34.4,28.1,34.3,26.6,32.9z M29.7,31.8c-0.1-0.4-0.4-0.8-0.9-1.3l-0.2-0.2
		c-0.9-0.8-1.5-1.1-2-0.5l0,0c-0.5,0.5-0.2,1.2,0.7,2l0.2,0.2c0.8,0.8,1.4,1.1,1.9,0.6l-1-0.4l0.6-0.7L29.7,31.8z"/>
	<path class="st0" d="M30.8,29.8l-2.6-3l0.9-0.8l2.6,3c0.4,0.5,0.8,0.6,1.3,0.1c0.5-0.5,0.5-0.8,0.1-1.3l-2.6-3l0.9-0.8l2.6,3
		c0.8,1,0.9,1.8-0.3,2.9C32.5,30.9,31.7,30.8,30.8,29.8z"/>
	<path class="st0" d="M35.4,21.2L36,22L34,23.4l0.7,1.1l1.6-1.1l0.6,0.9l-1.6,1.1l0.8,1.2l1.9-1.4l0.6,0.9L35.8,28l-3.4-4.8
		L35.4,21.2z"/>
	<path class="st0" d="M42.1,24.1l-1.6,0.8l-2.7-5.2l1.6-0.8c1.5-0.8,2.5-0.5,3.5,1.3l0.1,0.3C43.9,22.3,43.6,23.3,42.1,24.1z
		 M41.5,23.2c0.9-0.5,0.9-1.1,0.4-2.1l-0.1-0.3c-0.5-1-1-1.4-1.9-0.9l-0.5,0.2l1.7,3.3L41.5,23.2z"/>
	<path class="st0" d="M46,16l0.4,1l-2.2,0.9l0.5,1.2l1.9-0.7l0.4,1L45,20l0.5,1.3l2.2-0.9l0.4,1l-3.3,1.3l-2.2-5.5L46,16z M44.8,15
		L44.7,16l-1.1,0.4l0.1-0.9L44.8,15z"/>
	<path class="st0" d="M52,20.3l-1.2,0.3l-2-3.4l0.3,1.1l0.7,2.5l-1.2,0.3l-1.5-5.7l1.7-0.5l2,3.3l0-3.9l1.7-0.5l1.5,5.7L53,20
		l-0.7-2.5l-0.3-1.1L52,20.3z"/>
	<path class="st0" d="M54.4,16.9l0-0.3c-0.3-2,0.3-2.9,1.8-3.1c1.5-0.2,2.3,0.5,2.6,2.6l0,0.3c0.3,2-0.3,2.9-1.8,3.2
		C55.5,19.6,54.6,18.9,54.4,16.9z M56.9,18.4c0.7-0.1,0.9-0.8,0.7-1.9l0-0.3c-0.2-1.2-0.5-1.8-1.2-1.7l-0.1,0
		c-0.7,0.1-0.9,0.8-0.7,1.9l0,0.3C55.7,17.9,56,18.5,56.9,18.4L56.9,18.4z"/>
	<path class="st0" d="M61.8,18L61.8,18c0.7,0,0.9-0.4,0.9-1.1l1.2,0l0,0.1c0,1.4-0.7,2-2,2.1c-1.5,0-2.2-0.8-2.3-2.8l0-0.3
		c-0.1-2,0.6-2.9,2.1-2.9c1.4,0,2.1,0.5,2.1,2l0,0.3l-1.2,0c0-0.8-0.2-1.3-0.8-1.2l-0.1,0c-0.8,0-1,0.7-0.9,1.9l0,0.3
		C60.8,17.4,61,18,61.8,18z"/>
	<path class="st0" d="M65.7,19l-1.2-0.1l0.4-5.8l1.9,0.1c1,0.1,2,0.4,1.9,1.9l0,0.1c-0.1,0.9-0.5,1.4-1,1.6l0.8,2.3l-1.3-0.1
		L66.5,17l-0.6,0L65.7,19z M66.7,15.9c0.3,0,0.8-0.1,0.8-0.7l0-0.1c0-0.7-0.4-0.8-0.7-0.8L66,14.2l-0.1,1.6L66.7,15.9z"/>
	<path class="st0" d="M72.8,14l0.4,6l-1.3-0.2l-0.1-1.3l-1.4-0.3l-0.5,1.2l-1.3-0.2l2.5-5.5L72.8,14z M70.8,17.3l0.9,0.2l-0.1-2.2
		L70.8,17.3z"/>
	<path class="st0" d="M75.4,20.7l-1.2-0.3l1.3-4.6l-1.3-0.4l0.3-1l3.8,1l-0.3,1L76.6,16L75.4,20.7z"/>
	<path class="st0" d="M78.3,21.6l-1.2-0.4l1.9-5.5l1.2,0.4L78.3,21.6z"/>
	<path class="st0" d="M80,19.2l0.1-0.3c0.8-1.9,1.8-2.4,3.2-1.7c1.4,0.6,1.7,1.7,0.9,3.5L84.1,21c-0.6,1.3-1.2,2-2.1,2l0,0.9
		l-0.9-0.4l0-0.7c-0.1,0-0.2-0.1-0.3-0.1C79.5,22.2,79.2,21.1,80,19.2z M82.1,21.8c0.3-0.2,0.6-0.6,0.9-1.3l0.1-0.3
		c0.5-1.1,0.5-1.8-0.2-2.1l-0.1,0c-0.7-0.3-1.1,0.2-1.6,1.3l-0.1,0.3c-0.4,1-0.5,1.7,0.1,2l0-1.1l0.8,0.4L82.1,21.8z"/>
	<path class="st0" d="M84.4,22.2l2-3.5l1.1,0.6l-2,3.4c-0.3,0.5-0.3,0.9,0.3,1.3c0.6,0.3,0.9,0.2,1.2-0.4l2-3.4l1.1,0.6l-2,3.5
		c-0.6,1.1-1.4,1.4-2.8,0.6C83.9,24.2,83.8,23.3,84.4,22.2z"/>
	<path class="st0" d="M94,23.6l-0.6,0.9l-1.9-1.4l-0.7,1.1l1.6,1.2l-0.6,0.9L90.1,25l-0.8,1.1l1.9,1.4l-0.6,0.9l-2.9-2.1l3.4-4.8
		L94,23.6z"/>
	<path class="st0" d="M93.5,30.9l-1.3-1.2l4-4.3l1.3,1.2c1.3,1.2,1.3,2.2-0.1,3.7l-0.2,0.2C95.9,32,94.8,32.1,93.5,30.9z M94.2,30.1
		c0.7,0.7,1.3,0.5,2.1-0.4l0.2-0.2c0.8-0.9,1-1.5,0.2-2.1L96.4,27l-2.6,2.7L94.2,30.1z"/>
	<path class="st0" d="M97.1,31.8l3-2.6l0.8,0.9l-3,2.6c-0.5,0.4-0.6,0.8-0.1,1.3c0.5,0.5,0.8,0.5,1.3,0.1l3-2.6l0.8,0.9l-3,2.6
		c-1,0.8-1.8,0.9-2.9-0.3C96,33.4,96.2,32.6,97.1,31.8z"/>
	<path class="st0" d="M101.7,39.1L101.7,39.1c0.4,0.6,0.8,0.5,1.4,0.2l0.7,1l-0.1,0c-1.2,0.8-2.1,0.5-2.8-0.7
		c-0.8-1.3-0.5-2.3,1.2-3.4l0.3-0.2c1.7-1.1,2.8-1,3.6,0.3c0.8,1.2,0.6,2.1-0.6,2.9l-0.2,0.1l-0.7-1c0.7-0.4,1-0.8,0.6-1.4l0-0.1
		c-0.4-0.7-1.1-0.5-2.1,0.2l-0.3,0.2C101.7,37.9,101.2,38.4,101.7,39.1z"/>
	<path class="st0" d="M104.7,40.5l0.3-0.1c1.8-0.9,2.9-0.7,3.6,0.7c0.7,1.4,0.3,2.4-1.6,3.3l-0.3,0.1c-1.8,0.9-2.9,0.7-3.6-0.7
		C102.5,42.4,102.9,41.4,104.7,40.5z M104.1,43.3c0.3,0.7,1,0.6,2.1,0l0.3-0.1c1-0.5,1.5-1,1.2-1.7l0-0.1c-0.3-0.7-1-0.6-2.1,0
		l-0.3,0.1C104.2,42.1,103.7,42.6,104.1,43.3L104.1,43.3z"/>
	<path class="st0" d="M106,50.3l-0.4-1.2l2.7-3l-1.1,0.4l-2.3,0.9l-0.4-1.1l5.5-2l0.4,1.2l-2.7,3l1.1-0.4l2.3-0.9l0.4,1.1L106,50.3z
		"/>
	<path class="st0" d="M108.9,50.2l0.3-0.1c2-0.5,3,0,3.3,1.5c0.3,1.4,0,2.2-1.5,2.6l-0.3,0.1l-0.3-1.2c0.8-0.2,1.2-0.5,1-1.1l0-0.1
		c-0.2-0.8-0.9-0.8-2-0.5l-0.3,0.1c-1.1,0.3-1.7,0.6-1.5,1.5l0,0.1c0.1,0.3,0.2,0.6,0.4,0.7l0.9-0.2l-0.2-0.8l1-0.3l0.5,1.9
		l-2.5,0.6c-0.5-0.3-0.9-0.8-1.2-1.8C106.2,51.6,106.9,50.7,108.9,50.2z"/>
	<path class="st0" d="M110.1,55.2l0.3,0c2-0.3,2.9,0.3,3.1,1.8c0.2,1.5-0.5,2.3-2.5,2.6l-0.3,0c-2,0.3-2.9-0.3-3.1-1.8
		C107.3,56.3,108.1,55.5,110.1,55.2z M108.6,57.7c0.1,0.7,0.8,0.9,1.9,0.7l0.3,0c1.2-0.2,1.8-0.5,1.7-1.2l0-0.1
		c-0.1-0.7-0.8-0.9-1.9-0.7l-0.3,0C109.1,56.6,108.5,56.9,108.6,57.7L108.6,57.7z"/>
</g>
<g>
	<path class="st0" d="M28.9,102.3l3.4-5.7l1,1l-2.7,4.2l4.2-2.7l1,1l-5.7,3.4L28.9,102.3z"/>
	<path class="st0" d="M33.2,106.2l-1-0.9l4.1-4.9l1,0.9L33.2,106.2z"/>
	<path class="st0" d="M34.2,107l3.7-5.3l1.1,0.8l-3,4.3l1.9,1.4l-0.7,0.9L34.2,107z"/>
	<path class="st0" d="M38.1,109.6l3.1-5.6l1.2,0.6l-2.5,4.6l2.1,1.1l-0.5,1L38.1,109.6z"/>
	<path class="st0" d="M48.3,107.3l-0.4,1.1l-2.4-1l-0.5,1.3l2,0.8l-0.4,1.1l-2-0.8l-0.6,1.4l2.4,1l-0.4,1.1l-3.6-1.5l2.4-6
		L48.3,107.3z"/>
	<path class="st0" d="M50.7,114.6l-1.9-0.4l1.4-6.3l1.9,0.4c1.9,0.4,2.5,1.4,2,3.6l-0.1,0.3C53.5,114.4,52.6,115,50.7,114.6z
		 M50.9,113.5c1.1,0.2,1.5-0.3,1.8-1.5l0.1-0.3c0.3-1.3,0.1-1.9-1-2.2l-0.5-0.1l-0.9,4L50.9,113.5z"/>
	<path class="st0" d="M59.2,109.5l-0.1,1.1l-2.6-0.3l-0.2,1.4l2.2,0.3l-0.1,1.1l-2.2-0.3l-0.2,1.5l2.6,0.3l-0.1,1.1l-3.9-0.5
		l0.8-6.4L59.2,109.5z"/>
	<path class="st0" d="M62.7,112.1l1.6-2.5l1.6,0l-1.9,2.5l1.7,3.9l-1.5,0l-1.1-2.6l-0.6,0.8l0,1.8l-1.3,0l0.1-6.4l1.3,0L62.7,112.1z
		"/>
	<path class="st0" d="M68,115.9l-1.3,0.1l-0.4-6.4l1.3-0.1L68,115.9z"/>
	<path class="st0" d="M73.9,115.2l-1.4,0.2l-2.6-3.7l0.2,1.3l0.4,2.7l-1.2,0.2l-0.9-6.4l1.4-0.2l2.6,3.7l-0.2-1.3l-0.4-2.7l1.3-0.2
		L73.9,115.2z"/>
	<path class="st0" d="M74,110.6L74,110.6c-0.3-1.2,0.3-2.1,1.7-2.5c1.5-0.4,2.4,0.1,2.7,1.6l0,0.2l-1.3,0.3c-0.2-0.8-0.6-1.1-1.2-1
		l-0.1,0c-0.5,0.1-0.7,0.5-0.6,0.9l0,0c0.1,0.5,0.4,0.6,1.3,0.5c1.4-0.2,2.2,0.1,2.5,1.3l0,0.1c0.3,1.2-0.3,2.1-1.8,2.5
		c-1.5,0.4-2.4-0.1-2.8-1.6l0-0.1l1.3-0.3c0.2,0.8,0.6,1,1.2,0.9l0.1,0c0.6-0.2,0.8-0.5,0.7-1l0,0c-0.1-0.4-0.4-0.6-1.3-0.5
		C75.1,112,74.3,111.7,74,110.6z"/>
	<path class="st0" d="M82.6,105.7l2.4,5.9l-1.2,0.5l-1-2.5l-1.7,0.7l1,2.5l-1.2,0.5l-2.4-5.9l1.2-0.5l1,2.4l1.7-0.7l-1-2.4
		L82.6,105.7z"/>
	<path class="st0" d="M85.7,103.9l4.6,4.8l-1.2,0.7l-1-1l-1.4,0.8l0.4,1.3l-1.2,0.7l-1.8-6.4L85.7,103.9z M86.5,108l0.9-0.5
		l-1.6-1.8L86.5,108z"/>
	<path class="st0" d="M88.3,104.6L88.3,104.6c-0.8-1-0.6-2.1,0.5-3c1.2-1,2.2-0.8,3.1,0.3l0.1,0.1l-1,0.8c-0.5-0.7-1-0.8-1.5-0.4
		l-0.1,0c-0.4,0.3-0.5,0.8-0.2,1.1l0,0c0.3,0.4,0.6,0.4,1.4,0c1.2-0.7,2.1-0.8,2.8,0.2l0.1,0.1c0.8,1,0.6,2-0.6,3
		c-1.2,0.9-2.2,0.9-3.2-0.3l0-0.1l1.1-0.8c0.5,0.6,1,0.7,1.4,0.3l0.1,0c0.5-0.4,0.5-0.8,0.3-1.2l0,0c-0.3-0.4-0.6-0.4-1.4,0.1
		C89.8,105.5,89,105.5,88.3,104.6z"/>
	<path class="st0" d="M93.1,97.8l5.7,3.3l-1,1l-1.2-0.7l-1.1,1.1l0.8,1.2l-1,1l-3.5-5.6L93.1,97.8z M94.9,101.6l0.7-0.8l-2.1-1.3
		L94.9,101.6z"/>
</g>
<polygon class="st0" points="17.9,83.9 15.9,85.5 16.7,83 14.6,81.5 17.2,81.5 17.9,79 18.7,81.5 21.3,81.5 19.2,83 20,85.5 "/>
<polygon class="st0" points="108.1,83.9 106,85.5 106.8,83 104.7,81.5 107.3,81.5 108.1,79 108.8,81.5 111.4,81.5 109.3,83 
	110.1,85.5 "/>
<g>
	<path class="st0" d="M162.1,59.3l-3.8-15.1h3.3l2.6,11.5l2.6-11.5h3.4l-3.8,15.1H162.1z"/>
	<path class="st0" d="M174.7,59.3h-3.1V44.2h3.1V59.3z"/>
	<path class="st0" d="M177,59.3V44.2h3.1v12.4h5.6v2.7H177z"/>
	<path class="st0" d="M187,59.3V44.2h3.1v12.4h5.6v2.7H187z"/>
	<path class="st0" d="M206.3,44.2v2.7h-6.1v3.3h5.1v2.7h-5.1v3.6h6.1v2.7h-9.2V44.2H206.3z"/>
	<path class="st0" d="M163.7,82.5h-4.6V67.4h4.6c4.5,0,6.4,1.9,6.4,7.1v0.8C170.1,80.5,168.2,82.5,163.7,82.5z M163.6,79.8
		c2.6,0,3.3-1.4,3.3-4.4v-0.8c0-3-0.7-4.4-3.3-4.4h-1.3v9.7H163.6z"/>
	<path class="st0" d="M181.1,67.4v2.7h-6.1v3.3h5.1v2.7h-5.1v3.6h6.1v2.7h-9.2V67.4H181.1z"/>
	<path class="st0" d="M190,73.3l3.7-5.9h3.8l-4.2,6l4.2,9H194l-2.7-6.2l-1.3,1.8v4.3h-3.1V67.4h3.1V73.3z"/>
	<path class="st0" d="M202.2,82.5H199V67.4h3.1V82.5z"/>
	<path class="st0" d="M215.4,82.5h-3.3l-4.9-9.3l0.1,3v6.3h-3V67.4h3.3l4.8,9.3l-0.1-3v-6.3h3V82.5z"/>
	<path class="st0" d="M217.3,71.8v-0.2c0-2.7,1.9-4.5,5.3-4.5c3.7,0,5.3,1.6,5.3,5.2v0.4h-3.1c0-2-0.6-2.9-2.2-2.9h-0.2
		c-1.3,0-2,0.7-2,1.7v0.1c0,1.1,0.4,1.7,2.6,2c3.3,0.4,4.9,1.6,4.9,4.4v0.2c0,2.9-1.9,4.6-5.4,4.6c-3.6,0-5.4-1.6-5.4-5.2v-0.2h3.1
		c0,1.9,0.8,2.7,2.2,2.7h0.2c1.4,0,2.2-0.8,2.2-1.8v-0.1c0-1.1-0.6-1.7-2.7-2C218.8,75.7,217.3,74.6,217.3,71.8z"/>
	<path class="st0" d="M240.4,67.4v15.1h-3.1v-6.3h-4.4v6.3h-3.1V67.4h3.1v6h4.4v-6H240.4z"/>
	<path class="st0" d="M249.9,67.4l3.8,15.1h-3.3l-0.7-3.2h-3.7l-0.7,3.2h-3.4l3.8-15.1H249.9z M246.5,76.5h2.5l-1.2-5.5L246.5,76.5z
		"/>
	<path class="st0" d="M254.4,71.8v-0.2c0-2.7,1.9-4.5,5.3-4.5c3.7,0,5.3,1.6,5.3,5.2v0.4h-3.1c0-2-0.6-2.9-2.2-2.9h-0.2
		c-1.3,0-2,0.7-2,1.7v0.1c0,1.1,0.4,1.7,2.6,2c3.3,0.4,4.9,1.6,4.9,4.4v0.2c0,2.9-1.9,4.6-5.4,4.6c-3.6,0-5.4-1.6-5.4-5.2v-0.2h3.1
		c0,1.9,0.8,2.7,2.2,2.7h0.2c1.4,0,2.2-0.8,2.2-1.8v-0.1c0-1.1-0.6-1.7-2.7-2C256,75.7,254.4,74.6,254.4,71.8z"/>
	<path class="st0" d="M274,67.4l3.8,15.1h-3.3l-0.7-3.2H270l-0.7,3.2h-3.4l3.8-15.1H274z M270.6,76.5h2.5l-1.2-5.5L270.6,76.5z"/>
</g>
<rect x="138" y="5" class="st0" width="4" height="118"/>
</svg>
